<mxfile host="app.diagrams.net" agent="Mozilla/5.0 (Windows NT 10.0; Win64; x64) AppleWebKit/537.36 (KHTML, like Gecko) Chrome/131.0.0.0 Safari/537.36" version="24.8.8">
  <diagram name="Página-1" id="QQDtOWP4_mUzcYu9qLdw">
    <mxGraphModel dx="2901" dy="1941" grid="1" gridSize="10" guides="1" tooltips="1" connect="1" arrows="1" fold="1" page="1" pageScale="1" pageWidth="827" pageHeight="1169" math="0" shadow="0">
      <root>
        <mxCell id="0" />
        <mxCell id="1" parent="0" />
        <mxCell id="0JuT1h1kpXEatqI1JuG4-10" value="Arquivos Dinamicos do Sistema de Elevadores" style="swimlane;whiteSpace=wrap;html=1;" vertex="1" parent="1">
          <mxGeometry x="-60" y="-40" width="1040" height="520" as="geometry" />
        </mxCell>
        <mxCell id="0JuT1h1kpXEatqI1JuG4-29" style="edgeStyle=orthogonalEdgeStyle;rounded=0;orthogonalLoop=1;jettySize=auto;html=1;" edge="1" parent="0JuT1h1kpXEatqI1JuG4-10" source="0JuT1h1kpXEatqI1JuG4-11" target="0JuT1h1kpXEatqI1JuG4-27">
          <mxGeometry relative="1" as="geometry" />
        </mxCell>
        <mxCell id="0JuT1h1kpXEatqI1JuG4-35" style="edgeStyle=orthogonalEdgeStyle;rounded=0;orthogonalLoop=1;jettySize=auto;html=1;" edge="1" parent="0JuT1h1kpXEatqI1JuG4-10" source="0JuT1h1kpXEatqI1JuG4-11" target="0JuT1h1kpXEatqI1JuG4-34">
          <mxGeometry relative="1" as="geometry" />
        </mxCell>
        <mxCell id="0JuT1h1kpXEatqI1JuG4-39" style="edgeStyle=orthogonalEdgeStyle;rounded=0;orthogonalLoop=1;jettySize=auto;html=1;entryX=1;entryY=0.25;entryDx=0;entryDy=0;" edge="1" parent="0JuT1h1kpXEatqI1JuG4-10" source="0JuT1h1kpXEatqI1JuG4-11" target="0JuT1h1kpXEatqI1JuG4-38">
          <mxGeometry relative="1" as="geometry" />
        </mxCell>
        <mxCell id="0JuT1h1kpXEatqI1JuG4-67" style="edgeStyle=orthogonalEdgeStyle;rounded=0;orthogonalLoop=1;jettySize=auto;html=1;entryX=1;entryY=0.5;entryDx=0;entryDy=0;" edge="1" parent="0JuT1h1kpXEatqI1JuG4-10" source="0JuT1h1kpXEatqI1JuG4-11" target="0JuT1h1kpXEatqI1JuG4-66">
          <mxGeometry relative="1" as="geometry" />
        </mxCell>
        <mxCell id="0JuT1h1kpXEatqI1JuG4-11" value="main.c" style="shape=module;align=left;spacingLeft=20;align=center;verticalAlign=top;whiteSpace=wrap;html=1;" vertex="1" parent="0JuT1h1kpXEatqI1JuG4-10">
          <mxGeometry x="300" y="140" width="100" height="50" as="geometry" />
        </mxCell>
        <mxCell id="0JuT1h1kpXEatqI1JuG4-57" style="edgeStyle=orthogonalEdgeStyle;rounded=0;orthogonalLoop=1;jettySize=auto;html=1;entryX=0.5;entryY=0;entryDx=0;entryDy=0;" edge="1" parent="0JuT1h1kpXEatqI1JuG4-10" source="0JuT1h1kpXEatqI1JuG4-25" target="0JuT1h1kpXEatqI1JuG4-56">
          <mxGeometry relative="1" as="geometry" />
        </mxCell>
        <mxCell id="0JuT1h1kpXEatqI1JuG4-25" value="define_andar.c" style="shape=module;align=left;spacingLeft=20;align=center;verticalAlign=top;whiteSpace=wrap;html=1;" vertex="1" parent="0JuT1h1kpXEatqI1JuG4-10">
          <mxGeometry x="640" y="320" width="110" height="50" as="geometry" />
        </mxCell>
        <mxCell id="0JuT1h1kpXEatqI1JuG4-27" value="seleciona_andar.c" style="shape=module;align=left;spacingLeft=20;align=center;verticalAlign=top;whiteSpace=wrap;html=1;" vertex="1" parent="0JuT1h1kpXEatqI1JuG4-10">
          <mxGeometry x="690" y="210" width="160" height="50" as="geometry" />
        </mxCell>
        <mxCell id="0JuT1h1kpXEatqI1JuG4-30" style="edgeStyle=orthogonalEdgeStyle;rounded=0;orthogonalLoop=1;jettySize=auto;html=1;entryX=0.564;entryY=0.1;entryDx=0;entryDy=0;entryPerimeter=0;" edge="1" parent="0JuT1h1kpXEatqI1JuG4-10" source="0JuT1h1kpXEatqI1JuG4-27" target="0JuT1h1kpXEatqI1JuG4-25">
          <mxGeometry relative="1" as="geometry" />
        </mxCell>
        <mxCell id="0JuT1h1kpXEatqI1JuG4-34" value="autentica_usuario.c" style="shape=module;align=left;spacingLeft=20;align=center;verticalAlign=top;whiteSpace=wrap;html=1;" vertex="1" parent="0JuT1h1kpXEatqI1JuG4-10">
          <mxGeometry x="170" y="320" width="160" height="50" as="geometry" />
        </mxCell>
        <mxCell id="0JuT1h1kpXEatqI1JuG4-36" value="cria_andar.c" style="shape=module;align=left;spacingLeft=20;align=center;verticalAlign=top;whiteSpace=wrap;html=1;" vertex="1" parent="0JuT1h1kpXEatqI1JuG4-10">
          <mxGeometry x="800" y="70" width="160" height="50" as="geometry" />
        </mxCell>
        <mxCell id="0JuT1h1kpXEatqI1JuG4-37" style="edgeStyle=orthogonalEdgeStyle;rounded=0;orthogonalLoop=1;jettySize=auto;html=1;entryX=0.4;entryY=1.08;entryDx=0;entryDy=0;entryPerimeter=0;" edge="1" parent="0JuT1h1kpXEatqI1JuG4-10" source="0JuT1h1kpXEatqI1JuG4-11" target="0JuT1h1kpXEatqI1JuG4-36">
          <mxGeometry relative="1" as="geometry" />
        </mxCell>
        <mxCell id="0JuT1h1kpXEatqI1JuG4-38" value="cria_usuario.c" style="shape=module;align=left;spacingLeft=20;align=center;verticalAlign=top;whiteSpace=wrap;html=1;" vertex="1" parent="0JuT1h1kpXEatqI1JuG4-10">
          <mxGeometry x="50" y="150" width="160" height="50" as="geometry" />
        </mxCell>
        <mxCell id="0JuT1h1kpXEatqI1JuG4-56" value="fila_andares.c" style="shape=module;align=left;spacingLeft=20;align=center;verticalAlign=top;whiteSpace=wrap;html=1;" vertex="1" parent="0JuT1h1kpXEatqI1JuG4-10">
          <mxGeometry x="860" y="380" width="110" height="50" as="geometry" />
        </mxCell>
        <mxCell id="0JuT1h1kpXEatqI1JuG4-66" value="gerencia_usuario.c" style="shape=module;align=left;spacingLeft=20;align=center;verticalAlign=top;whiteSpace=wrap;html=1;" vertex="1" parent="0JuT1h1kpXEatqI1JuG4-10">
          <mxGeometry x="10" y="250" width="160" height="50" as="geometry" />
        </mxCell>
        <mxCell id="0JuT1h1kpXEatqI1JuG4-77" value="cria_elevador.c" style="shape=module;align=left;spacingLeft=20;align=center;verticalAlign=top;whiteSpace=wrap;html=1;" vertex="1" parent="0JuT1h1kpXEatqI1JuG4-10">
          <mxGeometry x="394" y="220" width="160" height="50" as="geometry" />
        </mxCell>
        <mxCell id="0JuT1h1kpXEatqI1JuG4-79" style="edgeStyle=orthogonalEdgeStyle;rounded=0;orthogonalLoop=1;jettySize=auto;html=1;entryX=0.563;entryY=0.1;entryDx=0;entryDy=0;entryPerimeter=0;" edge="1" parent="0JuT1h1kpXEatqI1JuG4-10" source="0JuT1h1kpXEatqI1JuG4-11" target="0JuT1h1kpXEatqI1JuG4-77">
          <mxGeometry relative="1" as="geometry" />
        </mxCell>
        <mxCell id="0JuT1h1kpXEatqI1JuG4-40" value="Arquivos estaticos do Sistema de elevadores" style="swimlane;whiteSpace=wrap;html=1;" vertex="1" parent="1">
          <mxGeometry x="-460" y="520" width="360" height="420" as="geometry" />
        </mxCell>
        <mxCell id="0JuT1h1kpXEatqI1JuG4-41" value="andar.h" style="shape=module;align=left;spacingLeft=20;align=center;verticalAlign=top;whiteSpace=wrap;html=1;" vertex="1" parent="0JuT1h1kpXEatqI1JuG4-40">
          <mxGeometry x="100" y="60" width="160" height="50" as="geometry" />
        </mxCell>
        <mxCell id="0JuT1h1kpXEatqI1JuG4-52" value="usuario.h" style="shape=module;align=left;spacingLeft=20;align=center;verticalAlign=top;whiteSpace=wrap;html=1;" vertex="1" parent="0JuT1h1kpXEatqI1JuG4-40">
          <mxGeometry x="100" y="190" width="160" height="50" as="geometry" />
        </mxCell>
        <mxCell id="0JuT1h1kpXEatqI1JuG4-74" value="elevador.h" style="shape=module;align=left;spacingLeft=20;align=center;verticalAlign=top;whiteSpace=wrap;html=1;" vertex="1" parent="0JuT1h1kpXEatqI1JuG4-40">
          <mxGeometry x="100" y="280" width="160" height="50" as="geometry" />
        </mxCell>
        <mxCell id="0JuT1h1kpXEatqI1JuG4-50" value="Componentes lógicos do Sistema de Elevadores" style="swimlane;whiteSpace=wrap;html=1;" vertex="1" parent="1">
          <mxGeometry x="50" y="550" width="590" height="180" as="geometry" />
        </mxCell>
        <mxCell id="0JuT1h1kpXEatqI1JuG4-53" value="&lt;div&gt;&amp;lt;&amp;lt;COM+&amp;gt;&amp;gt;&lt;/div&gt;UsuarioController" style="shape=module;align=left;spacingLeft=20;align=center;verticalAlign=top;whiteSpace=wrap;html=1;" vertex="1" parent="0JuT1h1kpXEatqI1JuG4-50">
          <mxGeometry x="20" y="65" width="160" height="50" as="geometry" />
        </mxCell>
        <mxCell id="0JuT1h1kpXEatqI1JuG4-55" value="&lt;div&gt;&amp;lt;&amp;lt;COM+&amp;gt;&amp;gt;&lt;/div&gt;AndarController" style="shape=module;align=left;spacingLeft=20;align=center;verticalAlign=top;whiteSpace=wrap;html=1;" vertex="1" parent="0JuT1h1kpXEatqI1JuG4-50">
          <mxGeometry x="410" y="65" width="160" height="50" as="geometry" />
        </mxCell>
        <mxCell id="0JuT1h1kpXEatqI1JuG4-75" value="&amp;lt;&amp;lt;COM+&amp;gt;&amp;gt;&lt;div&gt;ElevadorController&lt;/div&gt;" style="shape=module;align=left;spacingLeft=20;align=center;verticalAlign=top;whiteSpace=wrap;html=1;" vertex="1" parent="0JuT1h1kpXEatqI1JuG4-50">
          <mxGeometry x="215" y="110" width="160" height="50" as="geometry" />
        </mxCell>
        <mxCell id="0JuT1h1kpXEatqI1JuG4-65" style="edgeStyle=orthogonalEdgeStyle;rounded=0;orthogonalLoop=1;jettySize=auto;html=1;" edge="1" parent="0JuT1h1kpXEatqI1JuG4-50" target="0JuT1h1kpXEatqI1JuG4-41">
          <mxGeometry relative="1" as="geometry">
            <mxPoint x="490" y="160" as="sourcePoint" />
            <mxPoint x="-250" y="100" as="targetPoint" />
            <Array as="points">
              <mxPoint x="490" y="170" />
              <mxPoint x="-240" y="170" />
              <mxPoint x="-240" y="100" />
              <mxPoint x="-330" y="100" />
            </Array>
          </mxGeometry>
        </mxCell>
        <mxCell id="0JuT1h1kpXEatqI1JuG4-58" style="edgeStyle=orthogonalEdgeStyle;rounded=0;orthogonalLoop=1;jettySize=auto;html=1;entryX=0.564;entryY=0.043;entryDx=0;entryDy=0;entryPerimeter=0;" edge="1" parent="1" source="0JuT1h1kpXEatqI1JuG4-56" target="0JuT1h1kpXEatqI1JuG4-55">
          <mxGeometry relative="1" as="geometry" />
        </mxCell>
        <mxCell id="0JuT1h1kpXEatqI1JuG4-59" style="edgeStyle=orthogonalEdgeStyle;rounded=0;orthogonalLoop=1;jettySize=auto;html=1;" edge="1" parent="1" source="0JuT1h1kpXEatqI1JuG4-25" target="0JuT1h1kpXEatqI1JuG4-55">
          <mxGeometry relative="1" as="geometry" />
        </mxCell>
        <mxCell id="0JuT1h1kpXEatqI1JuG4-60" style="edgeStyle=orthogonalEdgeStyle;rounded=0;orthogonalLoop=1;jettySize=auto;html=1;" edge="1" parent="1" source="0JuT1h1kpXEatqI1JuG4-27" target="0JuT1h1kpXEatqI1JuG4-55">
          <mxGeometry relative="1" as="geometry" />
        </mxCell>
        <mxCell id="0JuT1h1kpXEatqI1JuG4-61" style="edgeStyle=orthogonalEdgeStyle;rounded=0;orthogonalLoop=1;jettySize=auto;html=1;" edge="1" parent="1" source="0JuT1h1kpXEatqI1JuG4-36" target="0JuT1h1kpXEatqI1JuG4-55">
          <mxGeometry relative="1" as="geometry" />
        </mxCell>
        <mxCell id="0JuT1h1kpXEatqI1JuG4-62" style="edgeStyle=orthogonalEdgeStyle;rounded=0;orthogonalLoop=1;jettySize=auto;html=1;" edge="1" parent="1" source="0JuT1h1kpXEatqI1JuG4-34" target="0JuT1h1kpXEatqI1JuG4-53">
          <mxGeometry relative="1" as="geometry" />
        </mxCell>
        <mxCell id="0JuT1h1kpXEatqI1JuG4-63" style="edgeStyle=orthogonalEdgeStyle;rounded=0;orthogonalLoop=1;jettySize=auto;html=1;" edge="1" parent="1" source="0JuT1h1kpXEatqI1JuG4-38" target="0JuT1h1kpXEatqI1JuG4-53">
          <mxGeometry relative="1" as="geometry" />
        </mxCell>
        <mxCell id="0JuT1h1kpXEatqI1JuG4-64" style="edgeStyle=orthogonalEdgeStyle;rounded=0;orthogonalLoop=1;jettySize=auto;html=1;entryX=1;entryY=0.5;entryDx=0;entryDy=0;" edge="1" parent="1" source="0JuT1h1kpXEatqI1JuG4-53" target="0JuT1h1kpXEatqI1JuG4-52">
          <mxGeometry relative="1" as="geometry" />
        </mxCell>
        <mxCell id="0JuT1h1kpXEatqI1JuG4-68" style="edgeStyle=orthogonalEdgeStyle;rounded=0;orthogonalLoop=1;jettySize=auto;html=1;" edge="1" parent="1" source="0JuT1h1kpXEatqI1JuG4-66" target="0JuT1h1kpXEatqI1JuG4-53">
          <mxGeometry relative="1" as="geometry" />
        </mxCell>
        <mxCell id="0JuT1h1kpXEatqI1JuG4-69" value="Base de Dados do Sistema de Elevadores" style="swimlane;whiteSpace=wrap;html=1;" vertex="1" parent="1">
          <mxGeometry x="60" y="810" width="570" height="180" as="geometry" />
        </mxCell>
        <mxCell id="0JuT1h1kpXEatqI1JuG4-70" value="&amp;lt;&amp;lt;dbtable&amp;gt;&lt;span style=&quot;background-color: initial;&quot;&gt;&amp;gt;&lt;/span&gt;&lt;div&gt;&lt;span style=&quot;background-color: initial;&quot;&gt;Andares&lt;/span&gt;&lt;/div&gt;" style="shape=module;align=left;spacingLeft=20;align=center;verticalAlign=top;whiteSpace=wrap;html=1;" vertex="1" parent="0JuT1h1kpXEatqI1JuG4-69">
          <mxGeometry x="400" y="65" width="130" height="50" as="geometry" />
        </mxCell>
        <mxCell id="0JuT1h1kpXEatqI1JuG4-71" value="&amp;lt;&amp;lt;dbtable&amp;gt;&amp;gt;&lt;div&gt;Usuarios&lt;/div&gt;" style="shape=module;align=left;spacingLeft=20;align=center;verticalAlign=top;whiteSpace=wrap;html=1;" vertex="1" parent="0JuT1h1kpXEatqI1JuG4-69">
          <mxGeometry x="30" y="65" width="160" height="50" as="geometry" />
        </mxCell>
        <mxCell id="0JuT1h1kpXEatqI1JuG4-81" value="&amp;lt;&amp;lt;dbtable&amp;gt;&lt;span style=&quot;background-color: initial;&quot;&gt;&amp;gt;&lt;/span&gt;&lt;div&gt;&lt;span style=&quot;background-color: initial;&quot;&gt;Elevadores&lt;/span&gt;&lt;/div&gt;" style="shape=module;align=left;spacingLeft=20;align=center;verticalAlign=top;whiteSpace=wrap;html=1;" vertex="1" parent="0JuT1h1kpXEatqI1JuG4-69">
          <mxGeometry x="240" y="65" width="130" height="50" as="geometry" />
        </mxCell>
        <mxCell id="0JuT1h1kpXEatqI1JuG4-72" style="edgeStyle=orthogonalEdgeStyle;rounded=0;orthogonalLoop=1;jettySize=auto;html=1;" edge="1" parent="1" source="0JuT1h1kpXEatqI1JuG4-53" target="0JuT1h1kpXEatqI1JuG4-71">
          <mxGeometry relative="1" as="geometry" />
        </mxCell>
        <mxCell id="0JuT1h1kpXEatqI1JuG4-73" style="edgeStyle=orthogonalEdgeStyle;rounded=0;orthogonalLoop=1;jettySize=auto;html=1;" edge="1" parent="1" source="0JuT1h1kpXEatqI1JuG4-55" target="0JuT1h1kpXEatqI1JuG4-70">
          <mxGeometry relative="1" as="geometry" />
        </mxCell>
        <mxCell id="0JuT1h1kpXEatqI1JuG4-76" style="edgeStyle=orthogonalEdgeStyle;rounded=0;orthogonalLoop=1;jettySize=auto;html=1;entryX=1;entryY=0.75;entryDx=0;entryDy=0;" edge="1" parent="1" source="0JuT1h1kpXEatqI1JuG4-75" target="0JuT1h1kpXEatqI1JuG4-74">
          <mxGeometry relative="1" as="geometry" />
        </mxCell>
        <mxCell id="0JuT1h1kpXEatqI1JuG4-78" style="edgeStyle=orthogonalEdgeStyle;rounded=0;orthogonalLoop=1;jettySize=auto;html=1;" edge="1" parent="1" source="0JuT1h1kpXEatqI1JuG4-83" target="0JuT1h1kpXEatqI1JuG4-75">
          <mxGeometry relative="1" as="geometry" />
        </mxCell>
        <mxCell id="0JuT1h1kpXEatqI1JuG4-82" style="edgeStyle=orthogonalEdgeStyle;rounded=0;orthogonalLoop=1;jettySize=auto;html=1;" edge="1" parent="1" source="0JuT1h1kpXEatqI1JuG4-75" target="0JuT1h1kpXEatqI1JuG4-81">
          <mxGeometry relative="1" as="geometry" />
        </mxCell>
        <mxCell id="0JuT1h1kpXEatqI1JuG4-84" value="" style="edgeStyle=orthogonalEdgeStyle;rounded=0;orthogonalLoop=1;jettySize=auto;html=1;" edge="1" parent="1" source="0JuT1h1kpXEatqI1JuG4-77" target="0JuT1h1kpXEatqI1JuG4-83">
          <mxGeometry relative="1" as="geometry">
            <mxPoint x="414" y="230" as="sourcePoint" />
            <mxPoint x="345" y="660" as="targetPoint" />
          </mxGeometry>
        </mxCell>
        <mxCell id="0JuT1h1kpXEatqI1JuG4-83" value="seleciona_elevador.c" style="shape=module;align=left;spacingLeft=20;align=center;verticalAlign=top;whiteSpace=wrap;html=1;" vertex="1" parent="1">
          <mxGeometry x="334" y="310" width="160" height="50" as="geometry" />
        </mxCell>
      </root>
    </mxGraphModel>
  </diagram>
</mxfile>
